<?xml version="1.0" standalone="no"?>
<!DOCTYPE svg PUBLIC "-//W3C//DTD SVG 20010904//EN"
 "http://www.w3.org/TR/2001/REC-SVG-20010904/DTD/svg10.dtd">
<svg version="1.0" xmlns="http://www.w3.org/2000/svg"
 width="16.000000pt" height="16.000000pt" viewBox="0 0 16.000000 16.000000"
 preserveAspectRatio="xMidYMid meet">
<metadata>
Created by potrace 1.11, written by Peter Selinger 2001-2013
</metadata>
<g transform="translate(0.000000,16.000000) scale(0.006154,-0.006154)"
fill="#000000" stroke="none">
<path d="M1127 2144 c-1 -1 -52 -5 -112 -8 -61 -3 -119 -8 -130 -10 -11 -2
-42 -7 -70 -10 -75 -10 -171 -34 -255 -62 -261 -90 -423 -240 -495 -459 -3
-11 -7 -22 -7 -25 0 -3 -4 -16 -9 -29 -33 -84 -29 -365 6 -496 82 -310 366
-516 785 -571 25 -3 72 -9 105 -14 65 -9 714 -7 755 3 14 3 43 8 65 11 213 24
438 110 576 219 56 45 144 152 161 197 5 14 15 38 23 53 19 38 47 180 43 218
l-3 32 -408 0 c-224 0 -411 -3 -414 -7 -4 -4 -8 -16 -10 -28 -29 -191 -138
-365 -265 -423 -101 -46 -237 -48 -333 -6 -108 48 -210 193 -257 366 -31 117
-31 319 0 430 31 107 84 205 145 266 82 83 154 109 286 105 118 -3 185 -31
262 -106 80 -79 153 -236 162 -348 1 -15 8 -22 22 -23 25 -1 785 -1 804 0 10
1 12 15 8 60 -24 270 -205 471 -519 575 -42 14 -87 27 -100 30 -13 2 -43 9
-68 15 -25 5 -67 13 -95 17 -27 3 -59 8 -70 10 -54 10 -578 26 -588 18z"/>
</g>
</svg>
